<svg width="277" height="97" viewBox="0 0 277 97" fill="none" xmlns="http://www.w3.org/2000/svg">
<path d="M24.96 11.136V96H12.416V29.312C7.552 33.152 4.224 38.656 4.224 44.928C4.224 46.336 4.352 47.744 4.736 49.024C2.304 44.672 0.384 38.272 0.384 33.28C0.384 14.976 20.864 15.872 21.76 -7.62939e-06C24.576 3.712 24.96 6.656 24.96 11.136ZM35.638 81.664H50.358L51.51 80.896C47.03 74.752 28.726 69.248 28.726 61.056C28.726 56.832 30.646 52.608 32.95 49.152C38.582 40.32 43.958 38.528 54.198 38.528C57.654 38.528 67.51 39.04 67.51 43.904C67.51 45.696 62.902 55.808 61.11 55.808C60.982 55.808 60.854 55.68 60.726 55.68C62.262 51.328 53.174 50.816 50.614 50.816C46.774 50.816 42.678 51.2 38.966 52.352C47.798 58.752 57.142 64.512 65.59 71.296C67.254 72.576 68.278 73.856 68.278 76.032C68.278 78.08 67.254 79.872 66.486 81.664H82.87L86.838 96H28.47L35.638 81.664ZM109.286 96H85.606C80.87 96 77.158 92.16 77.158 87.424C77.158 66.176 77.03 44.8 77.03 23.552C77.03 22.784 77.03 19.584 77.158 18.944C78.31 14.848 87.142 9.98399 90.342 6.656C91.11 6.656 91.238 7.296 91.238 7.808L91.366 77.184C91.366 78.848 92.902 81.664 94.822 81.664H106.214L109.286 96ZM157.901 81.664L161.869 96H136.653C132.941 96 130.893 93.312 129.869 90.112C125.901 93.568 120.781 95.872 115.405 95.872C106.317 95.872 98.637 89.472 98.637 80.128C98.637 68.864 112.973 61.952 120.909 56.192C124.749 53.376 138.061 43.264 138.061 38.656V38.272C141.645 40.96 143.181 45.696 143.181 49.92C143.181 55.296 139.981 58.24 136.141 61.44C133.069 64 111.821 79.744 111.821 81.536C111.821 84.352 121.165 85.376 123.341 85.376C125.005 85.376 129.101 85.12 129.101 82.688V72.192C129.101 70.016 140.749 59.648 143.053 58.88C143.181 59.264 143.309 59.776 143.309 60.16C143.309 67.328 143.053 74.496 142.925 81.664H157.901ZM246.854 81.664L250.182 96C243.526 96 236.87 96.128 230.214 96.128C220.742 96.128 217.926 92.672 217.926 83.456C217.926 78.208 218.822 53.888 215.878 50.944C215.238 50.304 214.598 49.92 213.702 49.92C208.966 49.92 205.51 59.904 204.486 63.616C202.694 70.144 202.31 76.928 202.31 83.712C202.31 87.808 202.438 91.904 202.438 96H187.718C187.974 89.728 188.102 83.328 188.102 77.056C188.102 73.344 188.102 52.608 184.774 51.584C184.39 51.456 183.878 51.456 183.494 51.456C177.99 51.456 175.942 60.032 174.79 64.128C171.846 74.624 169.798 85.376 167.75 96H154.822V42.752C154.822 41.344 153.926 39.552 152.902 38.656H169.03V62.336C173.126 54.144 183.11 39.04 193.35 39.04C201.542 39.04 202.566 49.024 202.566 55.168C206.662 48.64 214.214 38.912 222.662 38.912C228.934 38.912 232.262 46.208 232.262 51.712C232.262 59.648 232.134 67.584 232.134 75.52C232.134 81.024 235.718 81.92 239.814 81.92C242.246 81.92 244.678 81.664 246.854 81.664ZM272.324 81.664L276.292 96H250.948C245.188 96 243.396 89.6 243.396 84.864V42.752C243.396 41.216 242.628 39.68 241.604 38.656H257.604V75.136C257.604 77.184 258.244 81.664 261.06 81.664H272.324ZM257.86 23.68L250.308 31.232L242.884 23.68L250.308 16.128L257.86 23.68Z" fill="white"/>
</svg>
